<svg width="56" height="55" viewBox="0 0 56 55" fill="none" xmlns="http://www.w3.org/2000/svg">
<path d="M38.8352 30.4631C38.6226 30.2501 38.37 30.0812 38.092 29.9659C37.814 29.8506 37.516 29.7912 37.215 29.7912C36.914 29.7912 36.616 29.8506 36.338 29.9659C36.06 30.0812 35.8074 30.2501 35.5948 30.4631L30.34 35.7179V18.3334C30.34 17.7256 30.0985 17.1427 29.6688 16.7129C29.239 16.2831 28.6561 16.0417 28.0483 16.0417C27.4405 16.0417 26.8576 16.2831 26.4279 16.7129C25.9981 17.1427 25.7567 17.7256 25.7567 18.3334V35.7179L20.5019 30.4631C20.0722 30.0334 19.4893 29.792 18.8817 29.792C18.274 29.792 17.6912 30.0334 17.2614 30.4631C16.8317 30.8928 16.5903 31.4757 16.5903 32.0834C16.5903 32.3843 16.6496 32.6822 16.7647 32.9602C16.8799 33.2382 17.0487 33.4908 17.2614 33.7036L28.0483 44.4904L38.8352 33.7036C39.0482 33.4909 39.2172 33.2384 39.3325 32.9604C39.4478 32.6823 39.5071 32.3843 39.5071 32.0834C39.5071 31.7824 39.4478 31.4844 39.3325 31.2063C39.2172 30.9283 39.0482 30.6758 38.8352 30.4631V30.4631Z" fill="#111111"/>
</svg>
